<svg width="100" height="100" viewBox="0 0 100 100" fill="none" xmlns="http://www.w3.org/2000/svg">
<path d="M49.9863 64.8571C43.7838 64.8571 39.4487 61.8884 36.9144 59.1062H36.9478C35.4472 57.4437 32.9295 57.342 31.2955 58.8688C29.6615 60.3955 29.5615 62.9741 31.0621 64.6196C34.7135 68.6741 41.0661 73 50.0029 73C58.9398 73 65.2757 68.6571 68.9438 64.6196C70.4444 62.9741 70.3277 60.3955 68.7104 58.8688C67.0931 57.342 64.5587 57.4607 63.0581 59.1062C60.5238 61.8884 56.1887 64.8571 49.9863 64.8571Z" fill="#34A6ED"/>
<path d="M32.9416 36.59C31.941 37.6081 31.3789 38.9888 31.3789 40.4286C31.3789 41.8683 31.941 43.2491 32.9416 44.2671C33.9422 45.2852 35.2993 45.8571 36.7143 45.8571C38.1294 45.8571 39.4865 45.2852 40.4871 44.2671C41.4877 43.2491 42.0498 41.8683 42.0498 40.4286C42.0498 38.9888 41.4877 37.6081 40.4871 36.59C39.4865 35.5719 38.1294 35 36.7143 35C35.2993 35 33.9422 35.5719 32.9416 36.59Z" fill="#34A6ED"/>
<path d="M67.1643 36.59C66.1637 35.5719 64.8067 35 63.3916 35C61.9766 35 60.6195 35.5719 59.6189 36.59C58.6183 37.6081 58.0561 38.9888 58.0561 40.4286C58.0561 41.8683 58.6183 43.2491 59.6189 44.2671C60.6195 45.2852 61.9766 45.8571 63.3916 45.8571C64.8067 45.8571 66.1637 45.2852 67.1643 44.2671C68.1649 43.2491 68.7271 41.8683 68.7271 40.4286C68.7271 38.9888 68.1649 37.6081 67.1643 36.59Z" fill="#34A6ED"/>
<path fill-rule="evenodd" clip-rule="evenodd" d="M50 100C77.6142 100 100 77.6142 100 50C100 22.3858 77.6142 0 50 0C22.3858 0 0 22.3858 0 50C0 61.2582 3.72089 71.6474 10 80.0049V90H19.9951C28.3526 96.2791 38.7418 100 50 100ZM90 50C90 72.0914 72.0914 90 50 90C27.9086 90 10 72.0914 10 50C10 27.9086 27.9086 10 50 10C72.0914 10 90 27.9086 90 50Z" fill="#34A6ED"/>
</svg>
